<svg xmlns="http://www.w3.org/2000/svg" viewBox="0 0 275.61 275.61"><path d="M138.37,0a137.81,137.81,0,1,0,137.8,137.8A137.81,137.81,0,0,0,138.37,0ZM133,174.93H117.6l-15.37-60.5-16.08,60.5H70.79l-20-86.58h16.8l11.13,57.76L95.33,88.35h13.09L125,146.11l11.13-57.76h16.8Zm45.7-22.74a12.16,12.16,0,0,0,4.91,5.44,15.22,15.22,0,0,0,7.8,1.88,13.09,13.09,0,0,0,6.43-1.58,13.52,13.52,0,0,0,4.83-4.61,21.36,21.36,0,0,0,2.85-7.39h16.91a44.74,44.74,0,0,1-5.86,16.17,28.74,28.74,0,0,1-10.6,10.21,29.79,29.79,0,0,1-14.56,3.52h-9.88l-7-3.79a25.23,25.23,0,0,1-10.72-11q-3.69-7.25-3.69-17.48V119.79q0-10.23,3.69-17.47a25.38,25.38,0,0,1,10.72-11q7-3.81,16.91-3.81A30,30,0,0,1,206,91a28.82,28.82,0,0,1,10.63,10.21,44,44,0,0,1,5.8,16.17H205.48a21.68,21.68,0,0,0-2.94-7.32,14.07,14.07,0,0,0-4.83-4.65,12.61,12.61,0,0,0-6.34-1.61,15.22,15.22,0,0,0-7.8,1.88,12.16,12.16,0,0,0-4.91,5.48,20.2,20.2,0,0,0-1.7,8.66v23.76A20,20,0,0,0,178.66,152.19Z" transform="translate(-0.56 0)" style="fill:#2e3d98"/></svg>
